<svg width="58" height="58" viewBox="0 0 58 58" fill="none" xmlns="http://www.w3.org/2000/svg">
<path d="M21.7021 17.0527C22.5269 16.5489 23.604 16.8091 24.1078 17.6339L29.5812 26.5945L38.5418 21.1211C39.3666 20.6173 40.4436 20.8775 40.9474 21.7023C41.4512 22.5271 41.191 23.6042 40.3662 24.108L31.4057 29.5814L36.8791 38.5419C37.3829 39.3667 37.1227 40.4438 36.2979 40.9476C35.4731 41.4514 34.396 41.1912 33.8922 40.3664L28.4188 31.4058L19.4582 36.8792C18.6334 37.383 17.5564 37.1228 17.0526 36.298C16.5488 35.4732 16.809 34.3962 17.6338 33.8924L26.5943 28.419L21.1209 19.4584C20.6171 18.6336 20.8773 17.5565 21.7021 17.0527Z" fill="#E7E7E7"/>
</svg>
