<svg width="13" height="13" viewBox="0 0 13 13" fill="none" xmlns="http://www.w3.org/2000/svg">
<path d="M12.9669 3.82114C12.9364 3.12916 12.8244 2.65597 12.6641 2.24384C12.4987 1.80626 12.2443 1.41703 11.9135 1.09139C11.5878 0.760665 11.1934 0.503718 10.7634 0.343444C10.3486 0.18317 9.87786 0.0712329 9.18575 0.0407045C8.48855 0.0076321 8.26718 0 6.50127 0C4.73537 0 4.514 0.00763209 3.82188 0.0381605C3.12977 0.0686889 2.65649 0.180626 2.24427 0.3409C1.80662 0.506262 1.4173 0.760665 1.0916 1.09139C0.760814 1.41703 0.503817 1.81135 0.343511 2.24129C0.183206 2.65597 0.0712468 3.12661 0.0407125 3.81859C0.00763359 4.51566 0 4.73699 0 6.5C0 8.26301 0.00763359 8.48689 0.0381679 9.17887C0.0687023 9.87084 0.180662 10.344 0.340967 10.7562C0.506361 11.1937 0.763359 11.583 1.0916 11.9086C1.4173 12.2393 1.8117 12.4963 2.24173 12.6566C2.65649 12.8168 3.12723 12.9288 3.81934 12.9593C4.51145 12.9898 4.73282 12.9975 6.49873 12.9975C8.26463 12.9975 8.48601 12.9898 9.17812 12.9593C9.87023 12.9288 10.3435 12.8168 10.7557 12.6566C11.6285 12.3182 12.3206 11.6288 12.659 10.7536C12.8193 10.3389 12.9313 9.8683 12.9618 9.17632C12.9924 8.4818 13 8.26301 13 6.49746C13 4.7319 12.9975 4.51566 12.9669 3.82114ZM11.7964 9.13053C11.7684 9.76654 11.6616 10.1074 11.5725 10.3364C11.3537 10.9037 10.9033 11.3515 10.3384 11.5703C10.1094 11.6593 9.76336 11.7661 9.13232 11.7941C8.44529 11.8247 8.24173 11.8323 6.50636 11.8323C4.77099 11.8323 4.56234 11.8247 3.88041 11.7941C3.24427 11.7661 2.90331 11.6593 2.6743 11.5703C2.39186 11.466 2.13486 11.3006 1.92875 11.0843C1.71247 10.8732 1.54707 10.6188 1.44275 10.3389C1.35369 10.11 1.24682 9.76399 1.21883 9.13307C1.1883 8.44618 1.18066 8.24266 1.18066 6.50763C1.18066 4.7726 1.1883 4.56399 1.21883 3.88219C1.24682 3.24618 1.35369 2.90528 1.44275 2.67632C1.54453 2.39139 1.70992 2.13699 1.92875 1.92838C2.13995 1.71213 2.3944 1.54677 2.6743 1.44247C2.90331 1.35342 3.24936 1.24658 3.88041 1.21859C4.56743 1.18806 4.77099 1.18043 6.50636 1.18043C8.24428 1.18043 8.45038 1.18806 9.13232 1.21859C9.76845 1.24658 10.1094 1.35342 10.3384 1.44247C10.6209 1.54677 10.8779 1.71213 11.084 1.92838C11.3003 2.13953 11.4656 2.39393 11.57 2.67632C11.659 2.90528 11.7659 3.25127 11.7939 3.88219C11.8244 4.56908 11.8321 4.7726 11.8321 6.50763C11.8321 8.24266 11.827 8.44364 11.7964 9.13053Z" fill="white"/>
<path d="M6.50128 3.16223C4.65649 3.16223 3.16031 4.65812 3.16031 6.50254C3.16031 8.34696 4.65649 9.84285 6.50128 9.84285C8.34606 9.84285 9.84224 8.34696 9.84224 6.50254C9.84224 4.65812 8.34606 3.16223 6.50128 3.16223ZM6.50128 8.66751C5.30535 8.66751 4.33334 7.69824 4.33334 6.5C4.33334 5.30176 5.3028 4.33249 6.50128 4.33249C7.69721 4.33249 8.66922 5.30176 8.66922 6.5C8.66922 7.69824 7.69975 8.66751 6.50128 8.66751Z" fill="white"/>
<path d="M10.7557 3.02995C10.7557 3.45989 10.4071 3.80843 9.97711 3.80843C9.54709 3.80843 9.19849 3.45989 9.19849 3.02995C9.19849 2.60001 9.54709 2.25148 9.97711 2.25148C10.4046 2.24893 10.7557 2.60001 10.7557 3.02995Z" fill="white"/>
</svg>
