<svg width="132" height="40" viewBox="0 0 132 40" fill="none" xmlns="http://www.w3.org/2000/svg">
<path d="M59.816 30.336C65.976 30.336 70.54 26.052 70.54 20.2C70.54 14.348 65.976 10.064 59.816 10.064C53.628 10.064 49.092 14.376 49.092 20.2C49.092 26.024 53.628 30.336 59.816 30.336ZM59.816 26.472C56.316 26.472 53.684 23.924 53.684 20.2C53.684 16.476 56.316 13.928 59.816 13.928C63.316 13.928 65.948 16.476 65.948 20.2C65.948 23.924 63.316 26.472 59.816 26.472ZM82.433 10.4H73.949V30H78.485V24.596H82.433C87.669 24.596 90.945 21.88 90.945 17.512C90.945 13.116 87.669 10.4 82.433 10.4ZM82.181 20.9H78.485V14.096H82.181C84.953 14.096 86.353 15.356 86.353 17.512C86.353 19.64 84.953 20.9 82.181 20.9ZM98.6914 26.36V21.824H107.791V18.296H98.6914V14.04H108.995V10.4H94.1834V30H109.359V26.36H98.6914ZM122.294 30.336C125.71 30.336 128.538 29.104 130.386 26.836L127.474 24.148C126.158 25.688 124.506 26.472 122.546 26.472C118.878 26.472 116.274 23.896 116.274 20.2C116.274 16.504 118.878 13.928 122.546 13.928C124.506 13.928 126.158 14.712 127.474 16.224L130.386 13.536C128.538 11.296 125.71 10.064 122.322 10.064C116.218 10.064 111.682 14.292 111.682 20.2C111.682 26.108 116.218 30.336 122.294 30.336Z" fill="white"/>
<g clip-path="url(#clip0_2_57)">
<path d="M20 0C16.0444 0 12.1776 1.17298 8.8886 3.37061C5.59962 5.56824 3.03617 8.69181 1.52242 12.3463C0.00866568 16.0009 -0.387401 20.0222 0.384303 23.9018C1.15601 27.7814 3.06082 31.3451 5.85787 34.1421C8.65492 36.9392 12.2186 38.844 16.0982 39.6157C19.9778 40.3874 23.9992 39.9913 27.6537 38.4776C31.3082 36.9638 34.4318 34.4004 36.6294 31.1114C38.827 27.8224 40 23.9556 40 20C40 14.6957 37.8929 9.60859 34.1421 5.85786C30.3914 2.10714 25.3043 0 20 0V0ZM22 38C19.2311 38 16.5243 37.1789 14.222 35.6406C11.9197 34.1022 10.1253 31.9157 9.06569 29.3576C8.00607 26.7994 7.72882 23.9845 8.26901 21.2687C8.80921 18.553 10.1426 16.0584 12.1005 14.1005C14.0584 12.1426 16.553 10.8092 19.2687 10.269C21.9845 9.72881 24.7994 10.0061 27.3576 11.0657C29.9157 12.1253 32.1022 13.9197 33.6406 16.222C35.1789 18.5243 36 21.2311 36 24C36 27.713 34.525 31.274 31.8995 33.8995C29.274 36.525 25.713 38 22 38V38Z" fill="#FF5151"/>
</g>
<defs>
<clipPath id="clip0_2_57">
<rect width="40" height="40" fill="white"/>
</clipPath>
</defs>
</svg>
