<svg width="21" height="20" viewBox="0 0 21 20" fill="none" xmlns="http://www.w3.org/2000/svg">
<path d="M8.59789 1.8541C9.19659 0.0114827 11.8034 0.0114794 12.4021 1.8541L13.3064 4.63729C13.5742 5.46133 14.3421 6.01925 15.2085 6.01925H18.135C20.0724 6.01925 20.878 8.49848 19.3105 9.63729L16.943 11.3574C16.242 11.8667 15.9487 12.7694 16.2165 13.5935L17.1208 16.3766C17.7195 18.2193 15.6105 19.7515 14.0431 18.6127L11.6756 16.8926C10.9746 16.3833 10.0254 16.3833 9.32443 16.8926L6.95691 18.6127C5.38948 19.7515 3.28052 18.2193 3.87923 16.3766L4.78354 13.5935C5.05129 12.7694 4.75797 11.8667 4.057 11.3574L1.68947 9.63729C0.122046 8.49848 0.9276 6.01925 2.86505 6.01925H5.79146C6.65792 6.01925 7.42583 5.46133 7.69357 4.63729L8.59789 1.8541Z" fill="#FF5151"/>
</svg>
