<svg width="16" height="12" viewBox="0 0 16 12" fill="none" xmlns="http://www.w3.org/2000/svg">
<g clip-path="url(#clip0_144_1891)">
<path d="M16 1.41923C15.4062 1.66154 14.7719 1.82019 14.1094 1.89807C14.7906 1.52307 15.3094 0.934614 15.5531 0.225C14.9188 0.574037 14.2188 0.819229 13.4719 0.957691C12.8719 0.366346 12.0125 0 11.0781 0C9.2625 0 7.8 1.36154 7.8 3.02884C7.8 3.26826 7.82188 3.49903 7.875 3.71826C5.14687 3.59711 2.73438 2.38846 1.1125 0.550961C0.828125 1.00384 0.6625 1.52307 0.6625 2.08269C0.6625 3.13269 1.24688 4.06153 2.11875 4.59807C1.59063 4.58942 1.075 4.44807 0.6375 4.22595C0.6375 4.23461 0.6375 4.24615 0.6375 4.26057C0.6375 5.73172 1.775 6.9548 3.26562 7.2346C3 7.30095 2.70625 7.33556 2.40625 7.33556C2.19688 7.33556 1.98438 7.32403 1.78437 7.28364C2.20937 8.48364 3.41562 9.36345 4.85 9.39229C3.73438 10.1971 2.31562 10.6846 0.784375 10.6846C0.515625 10.6846 0.25625 10.6731 0 10.6442C1.45312 11.5096 3.175 12.0029 5.03125 12.0029C11.0688 12.0029 14.3687 7.38749 14.3687 3.38653C14.3687 3.25384 14.3625 3.12403 14.3562 2.99423C15.0062 2.5673 15.5531 2.03365 16 1.41923Z" fill="white"/>
</g>
<defs>
<clipPath id="clip0_144_1891">
<rect width="16" height="12" fill="white"/>
</clipPath>
</defs>
</svg>
